<svg xmlns="http://www.w3.org/2000/svg" width="3125" height="1024" viewBox="0 0 3125 1024">
  <defs>
    <style>
      .cls-1, .cls-2 {
        fill: #25282d;
      }

      .cls-1, .cls-2, .cls-3 {
        fill-rule: evenodd;
      }

      .cls-2, .cls-3 {
        stroke: #fff;
        stroke-width: 5px;
      }

      .cls-3 {
        fill: #db2633;
      }
    </style>
  </defs>
  <path id="CORE" class="cls-1" d="M1408.04,726.3q28.5-3.01,49.89-7.2a334.889,334.889,0,0,0,35.64-8.7q14.265-4.5,19.8-7.5l-19.8-48q-17.43,6.609-52.27,15-34.86,8.409-87.91,8.4-45.945,0-80.39-12t-57.42-33.9a138.638,138.638,0,0,1-34.45-52.5q-11.49-30.6-11.49-67.8,0-38.391,13.07-69.3a143.207,143.207,0,0,1,37.62-52.5q24.54-21.6,59.4-33t78.41-11.4a307.656,307.656,0,0,1,40.79,2.7,350.943,350.943,0,0,1,37.22,6.9q17.025,4.2,30.49,8.4a142.147,142.147,0,0,1,20.6,7.8l22.17-48q-4.755-2.391-17.42-7.2a277.167,277.167,0,0,0-32.87-9.6,479.019,479.019,0,0,0-47.52-8.4,473.353,473.353,0,0,0-61.38-3.6q-53.865,0-101.38,14.4t-83.16,42a203.3,203.3,0,0,0-56.62,68.1q-21,40.5-20.99,92.7t18.61,92.7a186.6,186.6,0,0,0,52.67,68.1q34.035,27.6,81.57,42,47.52,14.4,105.34,14.4A593.165,593.165,0,0,0,1408.04,726.3Zm176.22-120a197.471,197.471,0,0,0,57.02,68.1q36.03,27.309,83.96,41.1,47.91,13.8,101.77,13.8,53.055,0,100.19-13.8,47.1-13.8,82.76-41.1a199.612,199.612,0,0,0,56.63-68.1q20.97-40.8,20.99-94.2,0-53.4-20.99-94.2a199.781,199.781,0,0,0-56.63-68.1q-35.64-27.3-82.76-41.1t-100.19-13.8q-53.865,0-101.77,13.8-47.94,13.809-83.96,41.1a197.636,197.636,0,0,0-57.02,68.1q-21,40.809-20.99,94.2Q1563.27,565.509,1584.26,606.3Zm72.47-162.9a145.611,145.611,0,0,1,36.03-52.5q23.355-21.6,57.03-33.3,33.645-11.7,75.63-11.7,41.97,0,75.24,11.7t56.63,33.3a145.884,145.884,0,0,1,36.04,52.5q12.66,30.909,12.67,68.7t-12.67,68.7a145.806,145.806,0,0,1-36.04,52.5q-23.37,21.6-56.63,33.3t-75.24,11.7q-41.985,0-75.63-11.7-33.675-11.7-57.03-33.3a145.534,145.534,0,0,1-36.03-52.5q-12.675-30.9-12.67-68.7T1656.73,443.4Zm898.52,59.1q28.9-29.391,28.91-70.8,0-65.391-60.59-98.4-60.585-32.991-176.22-33-33.255,0-73.26,2.1a565.633,565.633,0,0,0-72.47,8.1V720.3h76.83V557.7h90.68q10.7,0,20.99-.6,15.03,13.809,33.66,32.4,18.6,18.6,37.62,39.9,19.005,21.3,37.62,44.7t34.45,46.2h83.95a474,474,0,0,0-34.45-49.8q-20.19-25.791-40.79-49.5t-39.99-43.2q-19.425-19.491-32.08-31.5Q2526.345,531.9,2555.25,502.5ZM2411.9,354.9q27.33,3.6,47.52,12.6t32.08,24.6q11.88,15.609,11.88,39,0,25.2-11.88,40.5t-33.66,23.7q-21.8,8.409-53.46,11.4-31.7,3.009-71.28,3h-54.65V353.1q26.13-1.8,75.24-1.8A446.186,446.186,0,0,1,2411.9,354.9Zm642.71,365.4V670.5h-278v-144h229.68V477.9H2776.61V354.3h258.2V304.5H2699.79V720.3h354.82Z"/>
  <path id="N_Left" data-name="N Left" class="cls-2" d="M475,467l40-43-32-35-92-99L224.649,112H64.619V912.1h160.03V302.134L244,318,429,515l14-14Z"/>
  <path id="N_Right" data-name="N Right" class="cls-2" d="M959,112H798.97V721.418l-4.874,1.1L594,509l-26,27-22,23-22,24-16,17L618,718,798.97,912.1H959V112Z"/>
  <path id="Stroke" class="cls-3" d="M255,695L768,146V329L255,878"/>
</svg>
